<svg xmlns="http://www.w3.org/2000/svg" version="1.1" xmlns:xlink="http://www.w3.org/1999/xlink" xmlns:svgjs="http://svgjs.dev/svgjs" width="1000" height="351" viewBox="0 0 1000 351"><g transform="matrix(1,0,0,1,-0.6060606060606233,-0.1925093115203822)"><svg viewBox="0 0 396 139" data-background-color="#61777f" preserveAspectRatio="xMidYMid meet" height="351" width="1000" xmlns="http://www.w3.org/2000/svg" xmlns:xlink="http://www.w3.org/1999/xlink"><defs></defs><g id="tight-bounds" transform="matrix(1,0,0,1,0.2400000000000091,0.07623588120037539)"><svg viewBox="0 0 395.52 134.61270909831717" height="134.61270909831717" width="395.52"><g><svg viewBox="0 0 395.52 134.61270909831717" height="134.61270909831717" width="395.52"><g><svg viewBox="0 0 395.52 134.61270909831717" height="134.61270909831717" width="395.52"><g><svg viewBox="0 0 395.52 134.61270909831717" height="134.61270909831717" width="395.52"><g><rect width="395.52" height="104.11878594385121" fill="none" stroke-width="8.962371322224001" stroke="#000000" data-fill-palette-color="none" data-stroke-palette-color="tertiary"></rect><rect width="395.52" height="34.72874229374804" y="104.11878594385121" fill="#000000" data-fill-palette-color="tertiary"></rect></g><g><svg viewBox="0 0 395.52 103.11878594385121" height="103.11878594385121" width="395.52"><g transform="matrix(1,0,0,1,23.461705032,23.461705032000005)"><svg width="348.596589936" viewBox="3.5 -35.70000076293945 225.7899932861328 36.400001525878906" height="56.1953758798512" data-palette-color="#000000"><path d="M3.5 0L3.5-35 20.05-35Q25.8-35 30.25-32.85 34.7-30.7 37.15-26.75 39.6-22.8 39.6-17.5L39.6-17.5Q39.6-12.2 37.15-8.25 34.7-4.3 30.25-2.15 25.8 0 20.05 0L20.05 0 3.5 0ZM13.4-7.9L19.65-7.9Q24.15-7.9 26.88-10.45 29.6-13 29.6-17.5L29.6-17.5Q29.6-22 26.88-24.55 24.15-27.1 19.65-27.1L19.65-27.1 13.4-27.1 13.4-7.9ZM68.4-35L78.1-35 78.1 0 69.95 0 54.5-18.65 54.5 0 44.8 0 44.8-35 52.95-35 68.4-16.35 68.4-35ZM102.75 0.7Q97.2 0.7 92.77-1.65 88.35-4 85.82-8.15 83.3-12.3 83.3-17.5L83.3-17.5Q83.3-22.7 85.82-26.85 88.35-31 92.77-33.35 97.2-35.7 102.75-35.7L102.75-35.7Q108.3-35.7 112.72-33.35 117.15-31 119.67-26.85 122.2-22.7 122.2-17.5L122.2-17.5Q122.2-12.3 119.67-8.15 117.15-4 112.72-1.65 108.3 0.7 102.75 0.7L102.75 0.7ZM102.75-7.5Q105.4-7.5 107.55-8.75 109.7-10 110.95-12.28 112.2-14.55 112.2-17.5L112.2-17.5Q112.2-20.45 110.95-22.73 109.7-25 107.55-26.25 105.4-27.5 102.75-27.5L102.75-27.5Q100.1-27.5 97.95-26.25 95.8-25 94.55-22.73 93.3-20.45 93.3-17.5L93.3-17.5Q93.3-14.55 94.55-12.28 95.8-10 97.95-8.75 100.1-7.5 102.75-7.5L102.75-7.5ZM144.84 0.7Q139.34 0.7 134.97-1.63 130.59-3.95 128.09-8.1 125.59-12.25 125.59-17.5L125.59-17.5Q125.59-22.75 128.09-26.9 130.59-31.05 134.97-33.38 139.34-35.7 144.84-35.7L144.84-35.7Q149.64-35.7 153.49-34 157.34-32.3 159.89-29.1L159.89-29.1 153.59-23.4Q150.19-27.5 145.34-27.5L145.34-27.5Q142.49-27.5 140.27-26.25 138.04-25 136.82-22.73 135.59-20.45 135.59-17.5L135.59-17.5Q135.59-14.55 136.82-12.28 138.04-10 140.27-8.75 142.49-7.5 145.34-7.5L145.34-7.5Q150.19-7.5 153.59-11.6L153.59-11.6 159.89-5.9Q157.34-2.7 153.49-1 149.64 0.7 144.84 0.7L144.84 0.7ZM189.89 0L187.14-6.8 172.34-6.8 169.59 0 159.49 0 174.94-35 184.69-35 200.19 0 189.89 0ZM175.24-14.1L184.24-14.1 179.74-25.3 175.24-14.1ZM208.69 0L208.69-27.15 197.94-27.15 197.94-35 229.29-35 229.29-27.15 218.59-27.15 218.59 0 208.69 0Z" opacity="1" transform="matrix(1,0,0,1,0,0)" fill="#000000" class="undefined-text-0" data-fill-palette-color="primary" id="text-0"></path></svg></g></svg></g><g transform="matrix(1,0,0,1,75.54432,103.11878594385121)"><svg viewBox="0 0 244.43135999999998 31.493923154465968" height="31.493923154465968" width="244.43135999999998"><rect width="244.43135999999998" height="31.493923154465968" x="0" y="0" opacity="1" fill="#000000" data-fill-palette-color="tertiary"></rect><g transform="matrix(1,0,0,1,20,3.2)"><svg width="204.43135999999998" viewBox="5.25 -35.400001525878906 291.6300048828125 35.80000305175781" height="25.093923154465966" data-palette-color="#61777f"><path d="M5.25 0L5.25-35 20-35Q25.55-35 29.85-32.8 34.15-30.6 36.52-26.63 38.9-22.65 38.9-17.5L38.9-17.5Q38.9-12.35 36.52-8.38 34.15-4.4 29.85-2.2 25.55 0 20 0L20 0 5.25 0ZM10.25-4.35L19.7-4.35Q23.95-4.35 27.18-6 30.4-7.65 32.15-10.63 33.9-13.6 33.9-17.5L33.9-17.5Q33.9-21.4 32.15-24.38 30.4-27.35 27.18-29 23.95-30.65 19.7-30.65L19.7-30.65 10.25-30.65 10.25-4.35ZM75.4 0L69.95 0 62.4-10.75Q61-10.65 60.2-10.65L60.2-10.65 51.55-10.65 51.55 0 46.55 0 46.55-35 60.2-35Q67-35 70.9-31.75 74.8-28.5 74.8-22.8L74.8-22.8Q74.8-18.75 72.8-15.9 70.8-13.05 67.1-11.75L67.1-11.75 75.4 0ZM60.05-14.9Q64.8-14.9 67.3-16.95 69.8-19 69.8-22.8L69.8-22.8Q69.8-26.6 67.3-28.63 64.8-30.65 60.05-30.65L60.05-30.65 51.55-30.65 51.55-14.9 60.05-14.9ZM87.9-4.35L108.3-4.35 108.3 0 82.9 0 82.9-35 107.6-35 107.6-30.65 87.9-30.65 87.9-19.9 105.45-19.9 105.45-15.65 87.9-15.65 87.9-4.35ZM142.54 0L138.69-8.75 120.09-8.75 116.24 0 111.09 0 126.94-35 131.89-35 147.79 0 142.54 0ZM121.84-12.75L136.94-12.75 129.39-29.9 121.84-12.75ZM190.24 0L185.44 0 185.39-25.5 172.74-4.25 170.44-4.25 157.79-25.35 157.79 0 152.99 0 152.99-35 157.09-35 171.69-10.4 186.09-35 190.19-35 190.24 0ZM237.74-18.15Q240.78-17.3 242.53-15.08 244.28-12.85 244.28-9.45L244.28-9.45Q244.28-4.9 240.86-2.45 237.44 0 230.88 0L230.88 0 214.19 0 214.19-35 229.88-35Q235.88-35 239.16-32.6 242.44-30.2 242.44-25.95L242.44-25.95Q242.44-23.2 241.16-21.2 239.88-19.2 237.74-18.15L237.74-18.15ZM229.44-30.95L219.19-30.95 219.19-19.75 229.44-19.75Q233.28-19.75 235.36-21.18 237.44-22.6 237.44-25.35L237.44-25.35Q237.44-28.1 235.36-29.53 233.28-30.95 229.44-30.95L229.44-30.95ZM230.69-4.05Q234.94-4.05 237.09-5.45 239.24-6.85 239.24-9.85L239.24-9.85Q239.24-15.7 230.69-15.7L230.69-15.7 219.19-15.7 219.19-4.05 230.69-4.05ZM252.03 0L252.03-35 257.03-35 257.03 0 252.03 0ZM291.78-6.3L291.78-17.7 296.58-17.7 296.58-4.05Q293.98-1.9 290.53-0.75 287.08 0.4 283.33 0.4L283.33 0.4Q278.03 0.4 273.78-1.93 269.53-4.25 267.11-8.33 264.68-12.4 264.68-17.5L264.68-17.5Q264.68-22.6 267.11-26.7 269.53-30.8 273.81-33.1 278.08-35.4 283.43-35.4L283.43-35.4Q287.63-35.4 291.06-34.02 294.48-32.65 296.88-30L296.88-30 293.78-26.9Q289.58-30.95 283.63-30.95L283.63-30.95Q279.63-30.95 276.46-29.23 273.28-27.5 271.48-24.43 269.68-21.35 269.68-17.5L269.68-17.5Q269.68-13.7 271.48-10.63 273.28-7.55 276.46-5.8 279.63-4.05 283.58-4.05L283.58-4.05Q288.28-4.05 291.78-6.3L291.78-6.3Z" opacity="1" transform="matrix(1,0,0,1,0,0)" fill="#61777f" class="undefined-text-1" data-fill-palette-color="quaternary" id="text-1"></path></svg></g></svg></g></svg></g></svg></g></svg></g></svg><rect width="395.52" height="134.61270909831717" fill="none" stroke="none" visibility="hidden"></rect></g></svg></g></svg>